<?xml version="1.0" encoding="utf-8"?>
<!-- Generator: Adobe Illustrator 24.1.2, SVG Export Plug-In . SVG Version: 6.00 Build 0)  -->
<svg version="1.1" id="Layer_1" xmlns="http://www.w3.org/2000/svg" xmlns:xlink="http://www.w3.org/1999/xlink" x="0px" y="0px"
	 viewBox="0 0 1000 1000" style="enable-background:new 0 0 1000 1000;" xml:space="preserve">
<style type="text/css">
	.st0{fill:#262626;}
	.st1{fill:#70A7DB;}
	.st2{fill:#FFFFFF;}
	.st3{fill:none;stroke:#000000;stroke-miterlimit:10;}
	.st4{fill:#3A72B8;}
	.st5{fill:#1C4F88;}
	.st6{fill:#F59E47;}
	.st7{fill:#F4D74A;}
	.st8{fill:#262626;stroke:#FFFFFF;stroke-width:4;stroke-miterlimit:10;}
	.st9{fill:#262626;stroke:#FFFFFF;stroke-width:3;stroke-miterlimit:10;}
</style>
<g>
	<path class="st8" d="M891.28,338.99c-8.86,1.1-17.46,4.69-24.5,10.21c-9.99,7.83-13.78,17.48-19.03,28.45
		c-13.35,27.89-49.75,39.36-76.07,52.52c-16.46,8.23-33.1,16.11-49.89,23.64c-14.34,6.43-45.93,12.75-56.28,24.17
		c-11.45,12.64,2.77,27.5,9.09,41.03c0.96,2.06,13.91,31.52,15.38,30.91c42.07-17.49,84.13-34.98,126.2-52.47
		c16.53-6.87,42.19-23.87,60.05-23.36c16.93,0.49,27.92,16.34,46.62,10.95c17.28-4.98,32.09-19.64,34.74-37.43
		c3.04-20.37-16.23-34.22-29.2-46.89c-1.56-1.52-3.18-3.14-3.84-5.22c-0.59-1.85-0.34-3.84-0.1-5.77
		c2.37-18.34,4.9-45.23-18.43-50.17C901.17,338.55,896.18,338.38,891.28,338.99z"/>
	<path class="st2" d="M807.6,431.8c16.64-9.71,32.26-20.83,44.21-34.07c10.81-11.99,14.96-40.44,33.14-43.77
		c22.46-4.12,28.43,17.26,25.1,33.96c-1.06,5.32-2.14,10.84-0.9,16.12c3.71,15.84,25.24,21.26,31.27,36.36
		c5.82,14.57-9.89,27.26-22.59,29.88c-13.85,2.86-23.88-5.97-36.94-8.3c-13.02-2.32-25.62,0.51-37.41,6.21
		c-25.09,12.14-50.87,22.87-77.17,32.11c-1.79,0.63-3.69,1.26-5.54,0.83c-23.22-5.33-26.4-32.92-5.92-42.62
		C771.52,450.62,790.12,441.99,807.6,431.8z"/>
	<path class="st8" d="M897.95,817.18c-8.85,1.2-18.07-0.09-26.29-3.64c-11.65-5.03-17.78-13.4-25.65-22.67
		c-20.01-23.57-58.13-25.4-86.93-31.41c-18.02-3.76-36.11-7.15-54.27-10.16c-15.5-2.57-47.67-0.64-60.58-9.04
		c-14.29-9.3-4.32-27.3-1.66-41.99c0.41-2.23,5.42-34.02,7-33.81c45.13,6.2,90.27,12.4,135.4,18.61
		c17.73,2.44,46.88,12.34,64.02,7.3c16.25-4.78,22.84-22.91,42.3-22.46c17.98,0.42,36.03,10.82,43.13,27.35
		c8.13,18.93-6.98,37.22-16.3,52.78c-1.12,1.87-2.27,3.84-2.38,6.02c-0.1,1.94,0.65,3.8,1.38,5.6c6.96,17.13,16.25,42.49-5.04,53.2
		C907.64,815.09,902.85,816.51,897.95,817.18z"/>
	<path class="st2" d="M801.07,699.85c15.8,3.63,32.96,10.15,49.35,6.57c16.44-3.59,21.69-20.2,37.13-25.01
		c11.1-3.46,24.2,5.52,27.87,15.81c2.42,6.78,1.51,14.43-1.28,21.07c-4.46,10.64-16.64,17.82-18.9,29.1
		c-3.05,15.19,13.29,24.26,11.21,39.28c-1.51,10.92-12.04,17.79-21.95,14.88c-0.88-0.26-1.75-0.59-2.61-1
		c-10.95-5.27-16.05-18.16-24.7-26.09c-10.32-9.46-19.28-13.1-33.07-16.1c-18.53-4.03-37.05-8.06-55.58-12.1
		c-8.92-1.94-17.84-3.88-26.76-5.82c-5.42-1.18-20.36-1.44-24.43-4.83c-9.49-7.92,1.22-48.54,17.3-46.84
		C756.99,691.12,779.18,694.83,801.07,699.85z"/>
	<path class="st8" d="M108.72,340.95c8.86,1.1,17.46,4.69,24.5,10.21c9.99,7.83,13.78,17.48,19.03,28.45
		c13.35,27.89,49.75,39.36,76.07,52.52c16.46,8.23,33.1,16.11,49.89,23.64c14.34,6.43,45.93,12.75,56.28,24.17
		c11.45,12.64-2.77,27.5-9.09,41.03c-0.96,2.06-13.91,31.52-15.38,30.91c-42.07-17.49-84.13-34.98-126.2-52.47
		c-16.53-6.87-42.19-23.87-60.05-23.36c-16.93,0.49-27.92,16.34-46.62,10.95c-17.28-4.98-32.09-19.64-34.74-37.43
		c-3.04-20.37,16.23-34.22,29.2-46.89c1.56-1.52,3.18-3.14,3.84-5.22c0.59-1.85,0.34-3.84,0.1-5.76
		c-2.37-18.34-4.9-45.23,18.43-50.17C98.83,340.5,103.82,340.34,108.72,340.95z"/>
	<path class="st2" d="M192.4,433.75c-16.64-9.71-32.26-20.83-44.21-34.07c-10.81-11.99-14.96-40.44-33.14-43.77
		c-22.46-4.12-28.43,17.26-25.1,33.96c1.06,5.32,2.14,10.84,0.9,16.12c-3.71,15.84-25.24,21.26-31.27,36.36
		c-5.82,14.57,9.89,27.26,22.59,29.88c13.85,2.86,23.88-5.97,36.94-8.3c13.02-2.32,25.62,0.51,37.41,6.21
		c25.09,12.14,50.87,22.87,77.17,32.11c1.79,0.63,3.69,1.26,5.54,0.83c23.22-5.33,26.4-32.92,5.92-42.62
		C228.48,452.58,209.88,443.95,192.4,433.75z"/>
	<path class="st8" d="M102.05,819.13c8.85,1.2,18.07-0.09,26.29-3.64c11.65-5.03,17.78-13.4,25.65-22.67
		c20.01-23.57,58.13-25.4,86.93-31.41c18.02-3.76,36.11-7.15,54.27-10.16c15.5-2.57,47.67-0.64,60.58-9.04
		c14.29-9.3,4.32-27.3,1.66-41.99c-0.41-2.23-5.42-34.02-7-33.81c-45.13,6.2-90.27,12.4-135.4,18.61
		c-17.73,2.44-46.88,12.34-64.02,7.3c-16.25-4.78-22.84-22.91-42.3-22.46c-17.98,0.42-36.03,10.82-43.13,27.35
		c-8.13,18.93,6.98,37.22,16.3,52.78c1.12,1.87,2.27,3.84,2.38,6.02c0.1,1.94-0.65,3.8-1.38,5.6c-6.96,17.13-16.25,42.49,5.04,53.2
		C92.36,817.04,97.15,818.47,102.05,819.13z"/>
	<path class="st2" d="M198.93,701.81c-15.8,3.63-32.96,10.15-49.35,6.57c-16.44-3.59-21.69-20.2-37.13-25.01
		c-11.1-3.46-24.2,5.52-27.87,15.81c-2.42,6.78-1.51,14.43,1.28,21.07c4.46,10.64,16.64,17.82,18.9,29.1
		c3.05,15.19-13.29,24.26-11.21,39.28c1.51,10.92,12.04,17.79,21.95,14.88c0.88-0.26,1.75-0.59,2.61-1
		c10.95-5.27,16.05-18.16,24.7-26.09c10.32-9.46,19.28-13.1,33.07-16.1c18.53-4.03,37.05-8.06,55.58-12.1
		c8.92-1.94,17.84-3.88,26.76-5.82c5.42-1.18,20.36-1.44,24.43-4.83c9.49-7.92-1.22-48.54-17.3-46.84
		C243.01,693.08,220.82,696.78,198.93,701.81z"/>
	<path class="st8" d="M766.76,734.06c5.62-8.95,5.8-14.2,10.52-23.72c120.64-48.71,151.52-212.46,151.52-212.46
		c-52.54,17.57-108.53,3.94-126.72-8.4c-2.8-9.19-6.02-18.2-9.63-27.01c11.07-11.55,71.09-107.46-8.78-293.09
		c0,0-43.19,133.88-135.18,132.11c-7.74-3.96-15.69-7.59-23.79-10.91L521.09,63.37L393.98,286.94
		c-11.43,4.26-22.56,9.16-33.31,14.68c-89.14,7.85-125.84-113.92-125.99-116.49c-94.5,165.38-25.24,264.53-12.38,278.5
		c-3.87,9.38-7.29,18.98-10.25,28.79c-19.68,13.12-71.25,22.47-122.5,5.33c0,0-4.89,136.68,134.14,213.71
		c4.84,9.85,10.17,19.4,15.98,28.63c-6.64,43.09-92.74,87.78-92.74,87.78c84.75,48.46,227.48,38.36,252.16,33.4
		c35.78,14.18,69.79,21.98,110.62,21.98c40.83,0,69.84-7.8,105.63-21.98c24.64,4.96,150.34,31.98,248.22-37.77
		C863.54,823.5,774.91,790.27,766.76,734.06z"/>
	<path class="st4" d="M750.52,728.8c5.11-8.13,9.82-16.54,14.11-25.2c127.78-69.98,135.21-182.08,135.21-182.08
		c-47.76,15.98-101.59-16.57-118.12-27.8c-2.55-8.35-5.48-16.54-8.75-24.55c10.07-10.5,65.17-77.67,7.67-239.89
		c0,0-33.63,103.94-142.18,93.55c-7.04-3.6-14.26-6.9-21.62-9.92l-94.2-199.29L408.9,309.6c-10.39,3.88-20.51,8.33-30.29,13.34
		c-107.56,9.48-140.93-93.66-140.93-93.66c-56.25,158.69-4.73,226.43,6.96,239.13c-3.52,8.53-6.63,17.26-9.32,26.18
		c-17.89,11.93-70.25,42.52-116.84,26.93c0,0,7.39,111.26,133.79,181.28c4.4,8.95,9.25,17.64,14.52,26.03
		c-7.44,51.08-82.69,95.52-82.69,95.52c77.05,44.05,196.99,22.8,219.43,18.28c32.53,12.89,67.99,19.98,105.11,19.98
		c37.12,0,72.58-7.09,105.11-19.98c22.4,4.51,142.39,25.78,219.45-18.28C833.21,824.35,757.93,779.9,750.52,728.8z"/>
	<path class="st5" d="M744.61,415.63c11.45,17.46,22.04,34.9,28.63,55.04c-0.33-1,14.28-20.73,15.83-23.29
		c5.5-9.04,10.11-25.21,12.1-35.6c4.73-24.6,6.26-37.23,5.92-57.89c-0.69-41.99-10.13-84.82-26.02-123.61
		c3.23,22.75,0.82,41.83-3.6,60.7c-4.21,17.96-14.31,34.76-24.42,49.96c-9.07,13.64-20.27,33.24-34.84,41.43
		c1.91,3.12,5.21,5.07,7.94,7.51c3.36,2.99,5.9,6.77,8.38,10.53C737.92,405.53,741.3,410.58,744.61,415.63z"/>
	<path class="st5" d="M559.77,186.07C549.32,159.96,535.24,135,522.42,110c4.19,8.17-1.26,31.61-1.39,41.12
		c-0.21,14.72-0.62,29.49-1.08,44.23c-1.02,32.84-1.66,64.43-2.41,96.65c29.39,3.22,36.93,4.11,59.46,8.87
		c40.08,8.47,39.83,12.04,39.83,12.04C596.55,270.06,577.4,230.16,559.77,186.07z"/>
	<path class="st5" d="M786.95,649.14c-3.35,12.2-7.7,24.13-13.02,35.61c-1.66,3.59-6.79,18.32-6.79,18.32s16.78-9.35,19.82-11.56
		c16.15-11.75,26.13-20.8,37.42-30.55c27.98-24.15,47.74-52.79,61.51-87.48c7.43-18.72,13.93-42.15,13.9-52.83
		c-16.84,33.63-51.61,55.99-85.67,68.98c-1.23,0.47-19.11,5.28-19.12,5.47C794.52,613.35,791.79,631.53,786.95,649.14z"/>
	<path class="st5" d="M293.2,391.81c27.61-29.09,54.55-53.14,85.2-68.5c-13.64,4.01-37.29-2.63-50.61-6.27
		c-23.85-6.51-37.21-17.08-52.63-30.37c-20.27-17.46-25.46-36.11-37.57-58.32c-1.26,29.04,4.01,60.04,11.08,88.25
		C258.55,355.96,285.81,399.6,293.2,391.81z"/>
	<path class="st5" d="M151.47,568.61c12.35,13.42,26.2,25.4,40.94,36.14c6.17,4.49,12.1,9.32,18.44,13.57
		c1.65,1.11,16.97,8.46,17.22,9.75c-4.18-21.94-4.63-44.4-3.39-66.7c0.67-12.01,1.6-23.9,3.99-35.68c1.35-6.68,2.44-13.83,4.6-20.3
		c1.41-4.24,1.87-8.89,4.01-12.84c-10.97,8.29-22.74,15.55-35.57,20.26c-12.88,4.73-26.35,9.81-39.91,11.78
		c-7.28,1.06-38.47,3.46-43.44-4.51C128.83,536.88,137.94,553.9,151.47,568.61z"/>
	<path class="st5" d="M311.37,824.45c-19.95,2.32-40.04,2.94-60.1,3.54c-22.52,0.68-45.28,1.34-67.35-3.19
		c0.38-0.34,0.75-0.71,1.18-0.99c17.4-11.13,32.75-22.09,46.7-36.85c8.16-8.63,15.48-18.04,21.82-28.07
		c5.05-7.98,12.04-19.87,13.68-29.12c5.07,5.02,7.41,9.79,11.35,15.55c6.54,9.89,15.82,19.29,23.73,28.11
		c15.85,17.67,31.39,30.42,52.92,43.83C331.21,821.28,326.13,822.74,311.37,824.45z"/>
	<path class="st5" d="M824.39,828.72c-16.82,8.36-33.99,13.72-52.55,17.27c-58.41,11.17-102.05,4.59-156.43-2.31
		c10.44-4.22,20.59-8.85,30.49-14.24c8.63-4.7,17.72-9.03,25.51-14.87C720.6,830.19,773.18,835.05,824.39,828.72z"/>
	<g>
		<path class="st0" d="M797.5,666.43c-8.66,28.27-21.32,55.17-37.63,79.83c-13.61,20.59-29.55,39.53-46.63,57.31
			c-3.81,3.96-7.75,7.68-11.81,11.18c-16.02,13.81-33.97,24.24-53.64,33.26c-25.13,11.52-49.82,18.25-77.26,21.95
			c-41.73,5.62-84.39,8.73-125.74,0.81c-106.56-20.4-198.14-111.64-208.01-221.05c2.89,32.05,30.72,72.58,48.77,98.26
			c21.95,31.23,52.88,61.29,86.47,79.63c79.02,43.15,177.22,31.07,258.91,1.2c24.93-9.12,53.44-19.61,72.2-38.75
			c19.55-19.94,35.69-43.03,50.35-66.71c35.15-56.76,47.48-124.7,36.12-190.37c-3.23-18.65-7.39-36.83-12.29-55.1
			c-4.49-16.75-13.7-29.23-24.01-43.27c-19.88-27.07-40.09-54.44-65.31-76.85c-12.43-11.04-26.09-20.86-41.18-27.95
			c-4.31-2.02-40.9-10.33-28.56-20.52c6.49-5.35,30.5,8.64,36.74,11.74c31.78,15.81,61.07,40.91,83.56,68.19
			C799.75,463.43,825.85,573.92,797.5,666.43z"/>
	</g>
	<g>
		<circle class="st6" cx="510.42" cy="578.12" r="285.47"/>
		<g>
			<path class="st0" d="M790.89,578.12c-0.04,29.52-4.61,58.85-13.73,86.94c-8.75,26.94-21.69,52.44-38.08,75.54
				c-16.15,22.77-35.86,43.21-58.03,60.18c-22.41,17.15-47.43,31.02-73.94,40.71c-27.53,10.07-56.55,15.8-85.84,16.89
				c-29.52,1.1-59.08-2.35-87.51-10.4c-27.47-7.78-53.61-19.8-77.46-35.49c-23.43-15.41-44.45-34.37-62.33-55.97
				c-17.9-21.62-32.63-46.13-43.22-72.13c-10.93-26.85-17.76-55.38-19.96-84.29c-2.26-29.68,0.05-59.66,7.12-88.59
				c6.76-27.7,17.74-54.24,32.52-78.62c14.61-24.11,32.85-45.91,53.92-64.65c21.03-18.7,44.92-34.15,70.54-45.8
				c26.15-11.89,54.37-19.71,82.92-22.96c29.49-3.35,59.54-2.19,88.63,3.74c28.15,5.74,55.34,15.77,80.42,29.78
				c24.54,13.7,46.91,31.03,66.33,51.33c19.53,20.42,35.89,43.73,48.51,69.02c12.83,25.7,21.53,53.42,25.96,81.79
				C789.87,549.36,790.87,563.75,790.89,578.12c0.01,6.43,10.01,6.45,10,0c-0.04-30.35-4.71-60.72-14.09-89.6
				c-9.05-27.86-22.32-54.37-39.3-78.24c-17.03-23.93-37.51-45.13-60.81-63c-23.21-17.81-49.1-31.97-76.57-42.05
				c-28.32-10.4-58.32-16.19-88.46-17.37c-30.47-1.18-61.22,2.43-90.57,10.74c-28.24,8-55.32,20.37-79.85,36.5
				c-24.34,16-46.31,35.62-64.83,58.11c-18.71,22.71-33.86,48.04-45.03,75.26c-11.4,27.78-18.25,57.32-20.58,87.26
				c-2.37,30.53,0.13,61.5,7.35,91.26c6.94,28.61,18.36,56.21,33.62,81.39c15.09,24.91,33.97,47.6,55.76,66.92
				c21.79,19.32,46.42,35.44,72.97,47.43c27.45,12.4,56.57,20.43,86.49,23.92c30.51,3.56,61.59,2.17,91.69-3.93
				c28.97-5.87,57.04-16.31,82.86-30.68c25.46-14.17,48.83-32.27,68.94-53.35c20.06-21.03,37.04-45.08,49.98-71.11
				c13.24-26.62,22.42-55.22,26.92-84.62c2.27-14.85,3.45-29.83,3.48-44.85C800.9,571.69,790.9,571.68,790.89,578.12z"/>
		</g>
	</g>
	<g>
		<path class="st7" d="M350.57,742.43c23.26,10.37,47.95,18.09,72.65,23.82c24.97,5.8,50.32,11.7,76.11,11.5
			c24.7-0.18,46.3-3.65,70.43-10.04c23.26-6.16,45.9-14.79,67-26.4c25.66-14.12,48.85-32.9,67.59-55.43
			c18.23-21.92,39.54-37.92,46.95-67.12c6.12-24.11,4.33-50.56-7.12-72.64c-8.06-15.54-21.09-28.66-36.8-36.45
			c-22.14-10.98-25.7,0.67-42.44,13.26c-6.81,5.12-16.9,8.72-25.04,11.06c-18.44,5.3-38.64,4.69-56.58-2.23
			c-7.19-2.78-13.99-6.49-20.55-10.55c-6.47-4.01-12.7-8.4-18.67-13.11c-28.44-22.46-50.91-52.42-64.53-86
			c-10.24-25.25-19.03-56.84-10.01-83.72c22.09-65.82,119.29-33.67,162.58-15.37c45.79,19.35,87.44,53.82,114.99,95.05
			c29.98,44.87,46.48,97.33,48.53,151.2c0.16,4.28,0.24,8.57,0.23,12.85c-0.29,169.51-133.47,285.93-291.07,281.49
			c-62.22-1.75-118.88-16.91-166.69-57.65c-26.51-22.58-45.94-49.17-65.26-77.68c-19.09-28.16-32.02-60.49-37.49-94.08
			C258.23,686.45,301.17,720.41,350.57,742.43z"/>
	</g>
	<g>
		<path class="st2" d="M644.78,629.11c-62.51,1.45-125.15-3.11-186.8-13.52c-30.83-5.2-61.41-11.86-91.6-19.96
			c-15.42-4.14-30.74-8.65-45.94-13.53c-3.55-1.14-27.32-13.65-27.23-6.35c1.08,85.27,76.67,158.08,154.21,182.14
			c75.26,23.35,160.46,7.57,225.42-37.04c15.31-10.51,29.68-22.77,41.23-37.37c14.64-18.51,26.32-38.32,29.24-62.32
			c0.27-2.23-0.14-5.29-2.38-5.55c-0.64-0.07-1.27,0.14-1.87,0.34C708.39,626.3,677.22,628.36,644.78,629.11z"/>
		<g>
			<path class="st0" d="M644.78,624.11c-42.9,0.98-85.86-0.84-128.53-5.46c-42.29-4.57-84.28-11.96-125.62-21.99
				c-20.59-5-41.03-10.66-61.26-16.98c-2.53-0.79-5.11-1.52-7.61-2.41c-0.22-0.08-0.45-0.2-0.68-0.25
				c-0.71-0.17,1.19,0.53-0.13-0.06c-2.08-0.93-4.16-1.87-6.26-2.79c-4.89-2.13-10.02-4.52-15.34-5.37
				c-2.58-0.41-5.37-0.62-7.73,0.78c-3.07,1.82-3.48,4.9-3.39,8.16c0.22,8.22,1.13,16.43,2.63,24.51
				c2.91,15.72,8.33,30.94,15.5,45.22c14.56,29.02,36.64,54.2,62.16,74.11c25.73,20.07,55.15,35.39,86.75,43.79
				c34.77,9.24,71.3,10.44,106.77,4.85c35.34-5.56,69.7-18.15,100.31-36.66c16.17-9.78,31.64-21.18,44.85-34.74
				c12.67-13,23.96-28.38,31.62-44.88c3.87-8.35,6.88-17.08,8.5-26.16c0.77-4.31,1.99-9.28-0.25-13.36
				c-1.12-2.03-3.2-3.44-5.49-3.72c-2.73-0.33-5.35,0.94-7.91,1.74c-19.26,6.05-39.27,9-59.37,10.4
				C664.48,623.53,654.63,623.88,644.78,624.11c-6.42,0.15-6.45,10.15,0,10c19.88-0.47,39.76-1.48,59.42-4.59
				c9.62-1.52,19.16-3.59,28.51-6.33c2.3-0.68,4.59-1.4,6.87-2.15c-0.25,0.08,1.42-0.43,1.42-0.47c-0.17,1.23-2.3-0.98-2.55-1.11
				c-0.47-0.25-0.05,0.2-0.05,0.17c0.03-0.36-0.03,0.85-0.04,0.99c-0.27,4.2-1.38,8.5-2.47,12.55
				c-4.44,16.53-13.45,31.35-23.83,44.82c-11,14.27-24.48,26.39-39.17,36.75c-28.26,19.92-60.33,34.16-93.99,42.01
				c-33.04,7.71-67.79,9.2-101.26,3.3c-31.17-5.5-60.6-17.42-87.02-34.83c-25.72-16.95-48.56-38.92-65.32-64.83
				c-8.25-12.76-15.05-26.45-19.74-40.92c-2.35-7.24-4.18-14.64-5.46-22.14c-0.61-3.59-1.05-7.04-1.37-10.7
				c-0.08-0.91-0.52-11.13-0.54-11.13c0.37,0.04-0.7,2-0.96,2.27c0.53-0.57-0.98,0.7-0.48,0.39c0.48-0.3-1.16,0.47-0.61,0.28
				c0.78-0.27-1.22-0.1,0.03,0.02c0.39,0.04,2.01,0.26,0.51-0.02c2.25,0.43,4.41,1.05,6.57,1.82c4.69,1.67,7.71,3.17,12.63,5.33
				c7.38,3.23,15.4,5.19,23.1,7.48c10.04,2.99,20.13,5.82,30.26,8.49c39.66,10.45,79.96,18.4,120.61,23.87
				c41.37,5.57,83.07,8.58,124.81,8.9c10.03,0.08,20.06-0.01,30.08-0.23C651.2,633.96,651.22,623.96,644.78,624.11z"/>
		</g>
	</g>
	<g>
		<g>
			<path class="st0" d="M353.06,593.35c-1.5,15.8-2.6,31.66-2.5,47.54c0.09,14.69,1.33,29.31,3.33,43.86
				c1.27,9.18,2.85,18.32,4.58,27.42c0.49,2.57,3.73,4.28,6.15,3.49c2.75-0.89,4.02-3.39,3.49-6.15
				c-1.54-8.08-2.96-16.19-4.14-24.33c-0.13-0.89-0.26-1.79-0.38-2.68c-0.06-0.41-0.11-0.82-0.17-1.23
				c-0.1-0.75,0.11,0.86,0.01,0.11c-0.04-0.27-0.07-0.54-0.11-0.81c-0.24-1.8-0.46-3.61-0.67-5.41c-0.41-3.58-0.77-7.17-1.07-10.76
				c-1.18-14.32-1.29-28.7-0.6-43.05c0.44-9.35,1.19-18.69,2.07-28.01c0.25-2.61-2.48-5.11-5-5
				C355.14,588.49,353.33,590.56,353.06,593.35L353.06,593.35z"/>
		</g>
	</g>
	<g>
		<g>
			<path class="st0" d="M535.23,521.34c-0.83,19.15-1.88,38.28-3.07,57.41c-1.2,19.28-2.55,38.54-4.03,57.8
				c-1.37,17.83-2.86,35.66-4.49,53.47c-1.35,14.8-2.8,29.59-4.45,44.36c-0.64,5.71-1.31,11.43-2.04,17.13
				c-0.07,0.57-0.15,1.13-0.22,1.7c-0.04,0.31-0.08,0.62-0.12,0.93c-0.02,0.14-0.04,0.27-0.05,0.41c-0.11,0.83,0.07-0.5,0.08-0.62
				c-0.16,1.15-0.31,2.31-0.48,3.46c-0.28,1.96-0.57,3.92-0.88,5.87c-0.13,0.81-0.26,1.61-0.4,2.42c-0.45,2.57,0.68,5.51,3.49,6.15
				c2.43,0.55,5.67-0.74,6.15-3.49c1.66-9.59,2.79-19.27,3.9-28.94c1.65-14.27,3.07-28.58,4.41-42.88
				c1.64-17.56,3.14-35.14,4.53-52.73c1.51-19.23,2.9-38.48,4.13-57.73c1.24-19.31,2.34-38.63,3.23-57.96
				c0.1-2.26,0.2-4.52,0.3-6.77c0.11-2.62-2.38-5.12-5-5C537.43,516.47,535.35,518.54,535.23,521.34L535.23,521.34z"/>
		</g>
	</g>
	<g>
		<g>
			<path class="st0" d="M614.58,633.71c-0.13,15.94-0.79,31.9-2.61,47.74c-0.11,0.97-0.23,1.94-0.35,2.9
				c-0.06,0.52-0.13,1.04-0.2,1.56c-0.04,0.31-0.22,1.64-0.09,0.68c-0.28,2.01-0.57,4.02-0.88,6.03c-0.63,4.03-1.35,8.05-2.16,12.06
				c-1.62,8.03-3.62,15.98-6.04,23.8c-1.41,4.54-2.95,9.03-4.65,13.47c-0.42,1.1-0.85,2.2-1.29,3.3c-0.21,0.51-0.41,1.03-0.62,1.54
				c-0.12,0.29-0.24,0.59-0.36,0.88c-0.03,0.08-0.39,0.94-0.21,0.5c0.2-0.47-0.11,0.25-0.12,0.28c-0.13,0.29-0.25,0.58-0.38,0.88
				c-0.25,0.58-0.51,1.17-0.77,1.75c-0.52,1.17-1.05,2.33-1.59,3.5c-1.1,2.37-0.75,5.5,1.79,6.84c2.21,1.17,5.66,0.74,6.84-1.79
				c7.27-15.65,12.7-32.06,16.34-48.93c3.53-16.36,5.5-33.06,6.48-49.76c0.54-9.07,0.78-18.15,0.85-27.23c0.02-2.62-2.31-5.12-5-5
				C616.85,628.84,614.6,630.91,614.58,633.71L614.58,633.71z"/>
		</g>
	</g>
	<g>
		<path class="st2" d="M462.79,509.55c32.33-13.96,23.03-61.62-3.66-76.39c-15.65-8.66-36.8-4.29-47.66,9.83
			c-6.73,8.75-9.59,20.3-8.04,31.23c1.56,10.93,7.45,21.13,15.93,28.19C431.24,512.29,448.62,515.67,462.79,509.55z"/>
		<g>
			<path class="st0" d="M465.31,513.87c7.24-3.16,13.46-8.55,17.46-15.39c3.82-6.54,5.56-14.19,5.58-21.73
				c0.04-15.18-6.52-30.87-17.65-41.25c-6.77-6.31-14.99-10.27-24.18-11.46c-9.52-1.22-19.61,0.99-27.82,5.96
				c-9.38,5.68-15.96,14.96-18.91,25.47c-3.16,11.25-1.88,23.15,3.07,33.67c4.61,9.8,12.69,18.21,22.39,23.06
				c9.9,4.95,21.26,6.7,32.12,4.33C460.12,515.94,462.72,514.97,465.31,513.87c2.42-1.03,3.13-4.77,1.79-6.84
				c-1.62-2.51-4.26-2.89-6.84-1.79c1.2-0.51-0.71,0.25-0.95,0.34c-0.48,0.17-0.97,0.33-1.46,0.49c-1.22,0.38-2.46,0.7-3.71,0.95
				c-0.5,0.1-1,0.19-1.51,0.27c-0.06,0.01-1.31,0.17-0.47,0.08c0.84-0.09-0.42,0.04-0.48,0.05c-1.14,0.12-2.29,0.18-3.44,0.2
				c-1.15,0.02-2.3-0.01-3.45-0.08c-0.64-0.04-1.28-0.1-1.92-0.17c-0.12-0.01-0.74-0.05-0.76-0.09c0.19,0.02,0.38,0.05,0.57,0.07
				c-0.25-0.04-0.51-0.08-0.76-0.12c-2.35-0.39-4.67-0.96-6.93-1.72c-1.04-0.35-2.08-0.71-3.08-1.15c1.19,0.53-0.69-0.33-0.93-0.44
				c-0.58-0.28-1.16-0.57-1.73-0.87c-1.02-0.55-2.03-1.13-3.01-1.75c-0.43-0.28-0.86-0.56-1.29-0.85c-0.27-0.18-0.53-0.37-0.79-0.56
				c-0.12-0.08-1.13-0.85-0.58-0.42c0.62,0.48-0.38-0.31-0.4-0.33c-0.2-0.16-0.4-0.33-0.6-0.5c-0.4-0.34-0.8-0.69-1.19-1.04
				c-0.97-0.88-1.91-1.81-2.8-2.77c-0.81-0.87-1.55-1.79-2.31-2.7c0.73,0.88-0.22-0.3-0.41-0.56c-0.42-0.59-0.84-1.18-1.23-1.79
				c-1.33-2.03-2.51-4.17-3.5-6.39c-0.11-0.24-0.22-0.48-0.32-0.72c0.41,1.04,0.08,0.18-0.02-0.08c-0.22-0.55-0.42-1.1-0.61-1.66
				c-0.41-1.18-0.77-2.37-1.07-3.58c-0.29-1.15-0.53-2.3-0.73-3.47c-0.05-0.32-0.12-0.65-0.15-0.97c0.02,0.17,0.12,1.07,0.02,0.11
				c-0.07-0.68-0.14-1.36-0.18-2.04c-0.15-2.46-0.33-5.33,0.23-7.76c-0.25,1.08,0.05-0.28,0.12-0.69c0.1-0.6,0.22-1.21,0.35-1.81
				c0.27-1.27,0.6-2.52,0.99-3.76c0.37-1.17,0.79-2.32,1.25-3.46c-0.43,1.08,0.28-0.59,0.41-0.86c0.32-0.68,0.66-1.34,1.02-2
				c0.59-1.07,1.22-2.12,1.91-3.14c0.3-0.45,0.62-0.89,0.94-1.34c0.56-0.78,0.02-0.06-0.08,0.08c0.19-0.29,0.44-0.55,0.66-0.81
				c1.41-1.68,2.97-3.22,4.67-4.61c0.17-0.14,0.39-0.28,0.54-0.43c-0.71,0.74-0.47,0.35-0.19,0.16c0.47-0.33,0.93-0.67,1.41-0.99
				c0.86-0.57,1.74-1.11,2.64-1.61c0.9-0.5,1.82-0.97,2.76-1.39c0.08-0.04,1.12-0.5,0.35-0.16c-0.77,0.34,0.27-0.11,0.36-0.14
				c0.53-0.21,1.07-0.41,1.61-0.59c2.01-0.69,4.07-1.21,6.17-1.57c0.28-0.05,0.57-0.09,0.85-0.14c0.68-0.11-0.05-0.18-0.31,0.04
				c0.23-0.2,1.05-0.12,1.37-0.14c1.14-0.1,2.29-0.15,3.44-0.15c1.03,0,2.07,0.04,3.1,0.13c0.46,0.04,0.91,0.09,1.37,0.14
				c1.16,0.12-0.88-0.15-0.13-0.02c0.34,0.06,0.68,0.11,1.02,0.17c2.1,0.38,4.16,0.93,6.16,1.67c0.22,0.08,0.43,0.16,0.65,0.25
				c0.09,0.04,1.1,0.52,0.37,0.14c-0.75-0.38,0.28,0.13,0.36,0.17c0.21,0.1,0.42,0.2,0.63,0.3c0.88,0.43,1.74,0.9,2.58,1.4
				c0.68,0.41,1.35,0.83,2.01,1.28c0.33,0.22,0.66,0.45,0.98,0.69c0.14,0.1,0.29,0.21,0.43,0.32c0.67,0.5,0.21,0.22-0.17-0.13
				c1.24,1.16,2.6,2.17,3.8,3.38c1.15,1.15,2.24,2.35,3.26,3.61c0.24,0.29,1.15,1.63,0.23,0.27c0.2,0.3,0.44,0.58,0.65,0.88
				c0.54,0.74,1.05,1.49,1.55,2.25c0.9,1.38,1.73,2.81,2.5,4.27c0.38,0.73,0.75,1.47,1.1,2.22c0.18,0.37,0.35,0.75,0.51,1.13
				c0.09,0.21,0.18,0.43,0.27,0.63c-0.23-0.5-0.39-0.95-0.08-0.17c0.62,1.53,1.16,3.1,1.64,4.68c0.5,1.66,0.92,3.35,1.25,5.05
				c0.16,0.8,0.3,1.61,0.42,2.42c0.19,1.25-0.09-0.78,0,0.01c0.05,0.49,0.11,0.98,0.16,1.48c0.3,3.29,0.2,6.55-0.15,9.83
				c-0.07,0.67,0.21-1.38,0.05-0.42c-0.03,0.17-0.05,0.35-0.08,0.52c-0.06,0.39-0.13,0.77-0.21,1.16c-0.16,0.81-0.34,1.61-0.54,2.41
				c-0.4,1.55-0.95,3.03-1.5,4.53c-0.23,0.62,0.55-1.23,0.15-0.36c-0.07,0.16-0.14,0.31-0.21,0.47c-0.16,0.35-0.33,0.7-0.5,1.04
				c-0.36,0.73-0.75,1.45-1.17,2.15c-0.4,0.67-0.82,1.32-1.26,1.95c-0.22,0.32-0.46,0.63-0.69,0.95c-0.38,0.54,0.83-1.02,0.22-0.29
				c-0.17,0.2-0.33,0.41-0.5,0.61c-1.03,1.22-2.15,2.36-3.35,3.41c-0.31,0.27-0.62,0.53-0.94,0.79c-0.87,0.72,0.89-0.65-0.19,0.14
				c-0.76,0.56-1.53,1.08-2.33,1.57c-1.51,0.93-3.09,1.73-4.71,2.44c-2.41,1.05-3.14,4.76-1.79,6.84
				C460.08,514.57,462.74,514.99,465.31,513.87z"/>
		</g>
	</g>
	<g>
		<path class="st2" d="M606.48,516.28c35.2,0.89,46.75-46.28,28.72-70.88c-10.58-14.43-31.6-19.33-47.39-11.06
			c-9.78,5.12-17.23,14.41-20.4,24.98c-3.17,10.58-2.1,22.3,2.64,32.27C576.69,505.53,591.05,515.89,606.48,516.28z"/>
		<g>
			<path class="st0" d="M606.48,521.28c7.83,0.17,15.8-1.87,22.29-6.34c6.17-4.25,11.07-10.16,14.28-16.92
				c6.5-13.66,7.59-30.42,2.06-44.61c-3.31-8.5-8.67-15.73-16.31-20.84c-8.04-5.38-18.27-8-27.9-7.07
				c-10.67,1.02-20.44,5.95-27.68,13.88c-7.89,8.63-12.35,19.83-12.6,31.52c-0.25,12.01,3.91,23.7,11.45,32.99
				c6.53,8.04,15.99,14.15,26.15,16.37C600.92,520.85,603.71,521.2,606.48,521.28c2.62,0.08,5.12-2.36,5-5c-0.12-2.78-2.2-4.91-5-5
				c-1.11-0.03-2.21-0.13-3.31-0.24c-1.22-0.12,0.82,0.15,0.05,0.01c-0.3-0.05-0.61-0.1-0.91-0.15c-0.6-0.11-1.2-0.23-1.8-0.37
				c-1.07-0.25-2.14-0.54-3.19-0.87c-0.58-0.19-1.16-0.39-1.74-0.6c-0.23-0.09-0.46-0.17-0.69-0.26c-0.17-0.07-0.34-0.14-0.51-0.21
				c-0.34-0.14-0.23-0.09,0.35,0.15c-0.01-0.12-1.4-0.64-1.51-0.69c-0.5-0.24-0.99-0.49-1.48-0.75c-1.09-0.58-2.15-1.2-3.18-1.87
				c-0.91-0.59-1.91-1.19-2.73-1.92c0.81,0.72-0.11-0.09-0.44-0.37c-0.52-0.43-1.04-0.88-1.54-1.34c-1.74-1.58-3.36-3.3-4.84-5.13
				c-0.19-0.23-0.78-0.85-0.02-0.01c-0.16-0.18-0.31-0.41-0.44-0.6c-0.33-0.45-0.65-0.9-0.96-1.37c-0.66-0.97-1.28-1.97-1.86-3
				c-0.56-0.99-1.07-2-1.55-3.02c-0.15-0.33-0.3-0.66-0.45-0.99c-0.35-0.77,0.4,1.09-0.08-0.21c-0.25-0.68-0.52-1.36-0.75-2.05
				c-0.89-2.62-1.53-5.31-1.96-8.04c-0.15-0.97-0.02-0.16,0,0.03c-0.04-0.36-0.08-0.72-0.12-1.08c-0.06-0.65-0.11-1.3-0.15-1.95
				c-0.08-1.45-0.09-2.9-0.03-4.35c0.05-1.3,0.16-2.61,0.33-3.9c-0.14,1.07,0.09-0.46,0.15-0.82c0.14-0.79,0.31-1.57,0.49-2.34
				c0.29-1.21,0.63-2.4,1.03-3.58c0.18-0.54,0.37-1.08,0.58-1.61c0.09-0.24,0.19-0.47,0.28-0.71c0.41-1.07-0.36,0.74,0.09-0.21
				c1.03-2.19,2.15-4.31,3.49-6.33c0.35-0.53,0.72-1.05,1.09-1.56c0.14-0.19,0.29-0.44,0.46-0.61c-0.72,0.72-0.25,0.32-0.08,0.11
				c0.82-0.97,1.63-1.94,2.52-2.85c0.79-0.82,1.62-1.61,2.47-2.36c0.43-0.38,0.86-0.74,1.31-1.1c0.23-0.19,0.85-0.79,0.04-0.04
				c0.27-0.25,0.62-0.46,0.92-0.67c1.91-1.36,3.95-2.56,6.09-3.55c0.2-0.09,0.45-0.17,0.63-0.28c-0.83,0.54-0.59,0.24-0.24,0.11
				c0.54-0.2,1.07-0.41,1.61-0.6c1.03-0.35,2.07-0.66,3.12-0.92c1-0.24,2-0.44,3.02-0.6c0.88-0.14,0.14-0.3-0.15,0.01
				c0.05-0.05,0.67-0.08,0.68-0.08c0.57-0.06,1.13-0.11,1.7-0.14c2.16-0.13,4.33-0.07,6.48,0.16c0.11,0.01,1.22,0.19,0.35,0.04
				c-0.87-0.15,0.25,0.04,0.35,0.06c0.45,0.07,0.9,0.15,1.35,0.24c1.12,0.22,2.23,0.49,3.32,0.81c0.99,0.28,1.96,0.61,2.92,0.97
				c0.21,0.08,0.43,0.16,0.64,0.25c0.09,0.04,1.1,0.51,0.35,0.14c-0.76-0.37,0.26,0.12,0.34,0.16c0.31,0.14,0.62,0.29,0.93,0.44
				c1.95,0.95,3.81,2.07,5.57,3.34c0.17,0.12,0.37,0.32,0.55,0.41c-0.82-0.4-0.5-0.4-0.2-0.15c0.44,0.36,0.89,0.72,1.32,1.1
				c0.82,0.72,1.6,1.48,2.35,2.27c0.71,0.76,1.38,1.55,2.04,2.35c0.47,0.58-0.71-0.99-0.04-0.04c0.1,0.14,0.2,0.28,0.3,0.42
				c0.25,0.35,0.49,0.71,0.73,1.07c0.91,1.37,1.73,2.8,2.46,4.27c0.35,0.7,0.64,1.43,0.99,2.13c-0.76-1.53-0.05-0.1,0.09,0.26
				c0.16,0.41,0.31,0.82,0.46,1.23c0.56,1.58,1.04,3.19,1.43,4.82c0.4,1.65,0.65,3.31,0.94,4.98c-0.01-0.04-0.17-1.35-0.07-0.53
				c0.02,0.18,0.04,0.36,0.06,0.53c0.05,0.44,0.09,0.89,0.13,1.34c0.07,0.85,0.13,1.7,0.16,2.55c0.07,1.66,0.05,3.32-0.03,4.98
				c-0.04,0.81-0.1,1.61-0.18,2.42c-0.04,0.45-0.09,0.89-0.15,1.34c-0.02,0.18-0.05,0.36-0.07,0.53c0.17-1.6,0.09-0.64,0.03-0.26
				c-0.51,3.34-1.32,6.63-2.46,9.81c-0.27,0.74-0.59,1.47-0.85,2.21c0.01-0.04,0.52-1.2,0.2-0.47c-0.07,0.16-0.14,0.32-0.21,0.48
				c-0.2,0.44-0.4,0.87-0.61,1.3c-0.72,1.47-1.51,2.9-2.39,4.28c-0.41,0.65-0.84,1.28-1.29,1.91c-0.22,0.31-0.46,0.61-0.68,0.92
				c0.95-1.35,0.11-0.15-0.17,0.18c-1.02,1.23-2.12,2.4-3.29,3.48c-0.55,0.51-1.12,1.01-1.71,1.48c-1.03,0.83,0.89-0.65-0.18,0.14
				c-0.34,0.25-0.68,0.49-1.03,0.73c-1.33,0.9-2.73,1.7-4.18,2.39c-0.31,0.15-0.63,0.27-0.93,0.43c1.51-0.78,0.14-0.07-0.24,0.08
				c-0.78,0.29-1.56,0.56-2.36,0.79c-0.81,0.24-1.64,0.44-2.47,0.61c-0.36,0.07-0.71,0.14-1.07,0.2c-0.23,0.04-0.45,0.07-0.68,0.11
				c-1.12,0.19,0.77-0.07,0.23-0.03c-1.78,0.14-3.53,0.28-5.32,0.24c-2.62-0.06-5.12,2.34-5,5
				C601.6,519.04,603.67,521.22,606.48,521.28z"/>
		</g>
	</g>
	<g>
		<g>
			<path class="st0" d="M434.21,616.36c-1.06,17.56-1.59,35.15-1.56,52.74c0.03,17.59,0.61,35.18,1.73,52.74
				c0.63,9.89,1.45,19.77,2.42,29.63c0.26,2.59,2.12,5.13,5,5c2.49-0.11,5.28-2.21,5-5c-1.74-17.51-2.94-35.06-3.59-52.64
				c-0.65-17.58-0.75-35.18-0.3-52.77c0.25-9.91,0.68-19.81,1.28-29.7c0.16-2.62-2.41-5.12-5-5
				C436.37,611.49,434.38,613.56,434.21,616.36L434.21,616.36z"/>
		</g>
	</g>
	<g>
		<g>
			<path class="st0" d="M686.06,628.79c-0.17,6.13-0.58,12.25-1.23,18.35c-0.15,1.37-0.31,2.74-0.48,4.11
				c-0.06,0.46-0.12,0.91-0.18,1.37c0.03-0.2,0.13-0.96-0.01,0.04c-0.12,0.84-0.23,1.67-0.36,2.5c-0.44,2.96-0.94,5.9-1.49,8.84
				c-2.24,11.9-5.4,23.63-9.46,35.04c-1.13,3.18-2.33,6.33-3.6,9.45c-0.35,0.85-0.7,1.7-1.05,2.55c0.34-0.81,0.03-0.07-0.03,0.08
				c-0.21,0.49-0.42,0.99-0.64,1.48c-0.7,1.62-1.43,3.22-2.17,4.82c-1.09,2.37-0.75,5.5,1.79,6.84c2.2,1.16,5.67,0.74,6.84-1.79
				c10.62-23,17.51-47.43,20.51-72.59c0.84-7,1.34-14.04,1.54-21.09c0.07-2.62-2.35-5.12-5-5
				C688.29,623.92,686.14,625.99,686.06,628.79L686.06,628.79z"/>
		</g>
	</g>
	<g>
		<g>
			<path class="st0" d="M681.37,488.11c0,1.08-0.07,2.15-0.19,3.22c-0.02,0.14-0.04,0.28-0.05,0.42c-0.05,0.53,0.11-0.63,0.01-0.1
				c-0.04,0.24-0.07,0.48-0.11,0.72c-0.1,0.61-0.22,1.22-0.35,1.83c-0.26,1.2-0.59,2.38-0.96,3.55c-0.18,0.57-0.38,1.14-0.59,1.71
				c-0.12,0.31-0.23,0.63-0.36,0.94c-0.08,0.2-0.55,1.33-0.26,0.66c-1.12,2.6-2.46,5.1-4.01,7.48c-0.38,0.59-0.78,1.17-1.18,1.74
				c-0.23,0.32-0.45,0.63-0.69,0.94c-0.08,0.1-0.16,0.21-0.24,0.31c-0.41,0.55,0.04-0.05-0.21,0.27c-1.01,1.27-2.06,2.5-3.17,3.67
				c-1.11,1.18-2.28,2.3-3.49,3.37c-0.65,0.58-1.32,1.14-2,1.69c-0.14,0.11-0.91,0.71-0.54,0.43c-0.42,0.32-0.84,0.63-1.26,0.94
				c-3.01,2.18-6.23,4.06-9.59,5.64c-1.83,0.86-3.06,1.37-5.08,2.1c-2.04,0.74-4.12,1.37-6.22,1.92c-4.52,1.17-8.9,1.87-13.46,2.23
				c-13.25,1.04-26.53-0.78-39.37-4.01c-3.12-0.78-4.45,4.04-1.33,4.82c21.02,5.28,44.39,7.18,64.85-1.36
				c13.06-5.45,24.5-15.14,30.6-28.08c2.51-5.32,4.24-11.14,4.25-17.05C686.37,484.9,681.37,484.89,681.37,488.11L681.37,488.11z"/>
		</g>
	</g>
	<g>
		<g>
			<path class="st0" d="M611.38,528.15c0.34,4.91,0.69,9.82,1.03,14.74c0.05,0.71,0.1,1.41,0.15,2.12c0.09,1.35,1.08,2.5,2.5,2.5
				c1.28,0,2.59-1.15,2.5-2.5c-0.34-4.91-0.69-9.82-1.03-14.74c-0.05-0.71-0.1-1.41-0.15-2.12c-0.09-1.35-1.08-2.5-2.5-2.5
				C612.6,525.65,611.28,526.8,611.38,528.15L611.38,528.15z"/>
		</g>
	</g>
	<g>
		<g>
			<path class="st0" d="M646.73,522.68c2.08,4.47,4.16,8.95,6.25,13.42c0.29,0.63,0.59,1.26,0.88,1.9c0.55,1.19,2.36,1.58,3.42,0.9
				c1.23-0.79,1.49-2.15,0.9-3.42c-2.08-4.47-4.16-8.95-6.25-13.42c-0.29-0.63-0.59-1.26-0.88-1.9c-0.55-1.19-2.36-1.58-3.42-0.9
				C646.4,520.05,646.13,521.4,646.73,522.68L646.73,522.68z"/>
		</g>
	</g>
	<g>
		<g>
			<path class="st0" d="M670.47,501.01c3.77,3.17,7.54,6.35,11.31,9.52c0.54,0.45,1.08,0.91,1.61,1.36c1,0.84,2.57,1.05,3.54,0
				c0.85-0.93,1.07-2.64,0-3.54c-3.77-3.17-7.54-6.35-11.31-9.52c-0.54-0.45-1.08-0.91-1.61-1.36c-1-0.84-2.57-1.05-3.54,0
				C669.62,498.41,669.4,500.11,670.47,501.01L670.47,501.01z"/>
		</g>
	</g>
	<g>
		<path class="st2" d="M540.79,545.98c13.56-5.86,9.66-25.85-1.53-32.05c-6.57-3.63-15.44-1.8-20,4.13
			c-2.82,3.67-4.03,8.52-3.37,13.1c0.65,4.59,3.12,8.86,6.69,11.83C527.55,547.13,534.85,548.55,540.79,545.98z"/>
		<g>
			<path class="st0" d="M543.32,550.3c15.07-6.68,13.42-28.06,2.51-37.75c-3.46-3.07-7.48-4.86-12.07-5.37
				c-4.47-0.5-9.3,0.66-13.11,3.04c-4.48,2.8-7.67,7.25-9.09,12.32c-1.53,5.48-0.83,11.14,1.54,16.25
				c4.83,10.41,18.17,16.53,29.02,12.01c1.26-0.52,2.27-1.07,2.99-2.3c0.63-1.07,0.89-2.65,0.5-3.85c-0.75-2.31-3.57-4.57-6.15-3.49
				c-0.82,0.34-1.65,0.63-2.51,0.84c-0.24,0.06-0.49,0.1-0.74,0.16c-0.7,0.18-0.05-0.21,0.21-0.01c-0.17-0.14-1.27,0.1-1.51,0.11
				c-0.29,0.01-2.56-0.25-2.65-0.12c0.13-0.18,0.96,0.19,0.2,0.01c-0.25-0.06-0.5-0.1-0.75-0.15c-0.5-0.11-0.99-0.24-1.47-0.4
				c-0.43-0.13-0.84-0.3-1.26-0.44c-0.67-0.23,0.77,0.39,0.14,0.05c-0.17-0.09-0.35-0.16-0.52-0.25c-0.77-0.39-2.06-0.9-2.61-1.58
				c0.08,0.1,0.83,0.7,0.11,0.08c-0.15-0.13-0.3-0.26-0.45-0.39c-0.35-0.31-0.68-0.63-1.01-0.96c-0.37-0.38-0.72-0.78-1.06-1.18
				c-0.07-0.08-0.45-0.61-0.1-0.12c0.4,0.57-0.23-0.35-0.3-0.46c-0.52-0.77-0.95-1.58-1.37-2.41c-0.42-0.84-0.05-0.04,0.03,0.1
				c-0.12-0.21-0.2-0.52-0.28-0.74c-0.18-0.5-0.33-1-0.46-1.52c-0.12-0.45-0.18-0.91-0.29-1.36c-0.14-0.58,0.02,0.31,0.03,0.34
				c-0.08-0.2-0.06-0.59-0.08-0.81c-0.06-0.86-0.3-2.46,0.07-3.27c-0.01,0.02-0.17,0.91-0.03,0.32c0.06-0.26,0.1-0.54,0.16-0.8
				c0.1-0.47,0.22-0.93,0.36-1.38c0.08-0.26,0.17-0.52,0.26-0.78c0.03-0.08,0.25-0.74,0.04-0.16c-0.22,0.61,0.09-0.19,0.16-0.34
				c0.15-0.31,0.3-0.61,0.47-0.91c0.23-0.42,0.48-0.82,0.75-1.22c0.07-0.11,0.24-0.45,0.35-0.5c-0.39,0.18-0.48,0.56-0.1,0.15
				c0.27-0.29,0.53-0.6,0.81-0.88c0.28-0.28,0.95-0.68,1.14-1.02c-0.01,0.02-0.79,0.56-0.34,0.27c0.19-0.12,0.37-0.26,0.56-0.38
				c0.33-0.22,0.67-0.42,1.02-0.61c0.35-0.19,0.71-0.35,1.06-0.53c0.6-0.31-0.9,0.32-0.26,0.11c0.27-0.09,0.53-0.2,0.8-0.29
				c0.76-0.25,1.53-0.41,2.31-0.58c0.89-0.19-0.99,0.08,0.19-0.01c0.51-0.04,1.02-0.06,1.53-0.05c0.4,0,0.79,0.03,1.19,0.06
				c1.19,0.1-0.69-0.17,0.19,0.03c0.84,0.18,1.66,0.38,2.47,0.67c1.17,0.43-0.56-0.32,0.23,0.1c0.36,0.19,0.72,0.37,1.07,0.58
				c0.27,0.16,0.53,0.33,0.78,0.5c0.11,0.07,0.22,0.15,0.33,0.23c0.8,0.52-0.69-0.59-0.27-0.22c1.03,0.9,1.98,1.8,2.86,2.84
				c0.75,0.88-0.5-0.73-0.03-0.04c0.21,0.3,0.42,0.6,0.62,0.9c0.37,0.58,0.72,1.17,1.04,1.78c0.15,0.29,0.29,0.57,0.43,0.86
				c0.55,1.16-0.21-0.61,0.05,0.07c0.24,0.65,0.48,1.29,0.68,1.95c0.18,0.61,0.34,1.23,0.47,1.86c0.06,0.31,0.11,0.63,0.17,0.94
				c0.15,0.8-0.06-0.47-0.06-0.52c0.01,0.22,0.05,0.45,0.07,0.67c0.07,0.76,0.1,1.52,0.08,2.28c-0.01,0.35-0.03,0.71-0.06,1.06
				c-0.01,0.18-0.04,0.35-0.05,0.53c-0.06,0.7,0.04-0.44,0.07-0.55c-0.23,0.69-0.28,1.46-0.49,2.16c-0.11,0.37-0.25,0.73-0.38,1.1
				c-0.06,0.16-0.25,0.62,0.06-0.12c0.34-0.82,0.02-0.08-0.07,0.11c-0.33,0.66-0.76,1.24-1.13,1.88c-0.25,0.43,0.42-0.52,0.39-0.49
				c-0.15,0.15-0.28,0.34-0.42,0.5c-0.26,0.3-0.54,0.59-0.83,0.86c-0.25,0.24-0.61,0.45-0.81,0.71c0.05-0.06,1.02-0.72,0.35-0.28
				c-0.16,0.1-0.31,0.21-0.46,0.32c-0.74,0.48-1.52,0.89-2.33,1.25c-2.4,1.06-3.14,4.75-1.79,6.84
				C538.08,550.99,540.75,551.44,543.32,550.3z"/>
		</g>
	</g>
	<g>
		<g>
			<path class="st0" d="M113.36,512.73c1.01,4.62,3.22,9.01,5.47,13.13c3.1,5.67,6.68,11.09,10.41,16.36
				c8.75,12.37,18.44,24.12,28.72,35.24c5.16,5.58,10.49,11.02,16.13,16.12c2.38,2.15,5.93-1.37,3.54-3.54
				c-10.44-9.44-19.95-19.93-28.94-30.74c-8.83-10.62-17.35-21.71-24.26-33.7c-1.49-2.58-2.9-5.22-4.12-7.95
				c-0.14-0.31-0.27-0.62-0.41-0.93c0.19,0.45-0.11-0.27-0.16-0.41c-0.23-0.58-0.45-1.15-0.65-1.74c-0.36-1.04-0.67-2.1-0.91-3.17
				C117.5,508.26,112.67,509.59,113.36,512.73L113.36,512.73z"/>
		</g>
	</g>
	<g>
		<g>
			<path class="st0" d="M235.12,218.16c-0.58,6.05-0.39,12.18-0.05,18.25c0.45,7.99,1.29,15.96,2.3,23.9
				c2.27,17.85,5.38,35.6,9.3,53.16c1.91,8.55,4.01,17.07,6.53,25.46c0.92,3.07,5.75,1.76,4.82-1.33
				c-4.74-15.76-8.16-31.93-11.1-48.11c-3.03-16.67-5.54-33.5-6.68-50.42c-0.47-6.94-0.79-13.98-0.12-20.91
				c0.13-1.35-1.24-2.5-2.5-2.5C236.16,215.66,235.25,216.81,235.12,218.16L235.12,218.16z"/>
		</g>
	</g>
	<g>
		<g>
			<path class="st0" d="M521.29,105.22c0.08,0.47,0.15,0.94,0.22,1.4c0.05,0.36-0.08-0.66-0.01-0.11c0.01,0.11,0.03,0.22,0.04,0.33
				c0.03,0.28,0.07,0.57,0.1,0.85c0.13,1.23,0.23,2.46,0.3,3.7c0.18,2.96,0.26,5.93,0.29,8.9c0.07,7.39-0.13,14.78-0.42,22.17
				c-0.64,16.67-1.74,33.32-2.88,49.96c-0.5,7.37-1.03,14.74-1.49,22.11c-0.2,3.21,4.8,3.2,5,0c0.9-14.63,2.01-29.25,2.91-43.89
				c0.99-16.11,1.93-32.26,1.89-48.4c-0.02-6.1-0.06-12.32-1.13-18.35c-0.24-1.33-1.86-2.08-3.08-1.75
				C521.63,102.53,521.05,103.89,521.29,105.22L521.29,105.22z"/>
		</g>
	</g>
	<g>
		<g>
			<path class="st0" d="M777.78,221.22c2,12.16,1.51,24.95,0.14,37.23c-1.61,14.43-4.74,28.72-8.96,42.6
				c-2.41,7.92-5.19,15.74-8.43,23.35c-0.53,1.24-0.37,2.68,0.9,3.42c1.05,0.61,2.89,0.35,3.42-0.9
				c5.98-14.05,10.62-28.65,13.92-43.56c3.09-13.96,5.11-28.26,5.29-42.57c0.09-7-0.32-14-1.46-20.91
				c-0.22-1.33-1.87-2.08-3.08-1.75C778.11,218.53,777.56,219.88,777.78,221.22L777.78,221.22z"/>
		</g>
	</g>
	<g>
		<g>
			<path class="st0" d="M177.41,824.43c13.78,3.17,27.74,5.52,41.84,6.74c15.42,1.33,30.92,1.29,46.36,0.3
				c10.29-0.66,20.55-1.74,30.78-3.07c1.34-0.17,2.5-1.02,2.5-2.5c0-1.21-1.15-2.68-2.5-2.5c-17.13,2.24-34.39,3.75-51.68,3.8
				c-14.38,0.05-28.75-0.93-42.96-3.13c-7.72-1.19-15.39-2.71-23.01-4.46C175.61,818.89,174.27,823.71,177.41,824.43L177.41,824.43z
				"/>
		</g>
	</g>
	<g>
		<g>
			<path class="st0" d="M731.91,829.63c26.99,3.94,54.39,3.97,81.39,0.05c7.57-1.1,15.1-2.52,22.55-4.24
				c3.13-0.72,1.81-5.54-1.33-4.82c-25.89,5.97-52.6,8.14-79.12,6.48c-7.41-0.46-14.81-1.22-22.16-2.3
				c-1.33-0.19-2.69,0.33-3.08,1.75C729.84,827.73,730.56,829.43,731.91,829.63L731.91,829.63z"/>
		</g>
	</g>
	<g>
		<g>
			<path class="st0" d="M905.52,512.53c-5.8,10.43-13.05,20-21.19,28.71c-9.9,10.6-21.13,19.93-33.39,27.69
				c-7.76,4.91-15.91,9.18-24.35,12.78c-1.24,0.53-1.52,2.36-0.9,3.42c0.75,1.29,2.17,1.43,3.42,0.9
				c14.83-6.32,28.67-14.76,41.19-24.9c10.8-8.75,20.53-18.78,28.91-29.87c3.9-5.15,7.47-10.55,10.61-16.2
				C911.4,512.24,907.09,509.71,905.52,512.53L905.52,512.53z"/>
		</g>
	</g>
	<g>
		<g>
			<path class="st0" d="M186.31,602.49c3.4,2.97,6.8,5.94,10.2,8.91c0.98,0.86,2.58,1.04,3.54,0c0.87-0.94,1.05-2.62,0-3.54
				c-3.4-2.97-6.8-5.94-10.2-8.91c-0.98-0.86-2.58-1.04-3.54,0C185.45,599.9,185.26,601.57,186.31,602.49L186.31,602.49z"/>
		</g>
	</g>
	<g>
		<g>
			<path class="st0" d="M257.98,351.05c1.51,3.37,3.02,6.74,4.53,10.11c0.54,1.2,2.37,1.57,3.42,0.9c1.24-0.8,1.47-2.14,0.9-3.42
				c-1.51-3.37-3.02-6.74-4.53-10.11c-0.54-1.2-2.37-1.57-3.42-0.9C257.64,348.43,257.41,349.77,257.98,351.05L257.98,351.05z"/>
		</g>
	</g>
	<g>
		<g>
			<path class="st0" d="M270.26,371.42c3.22,0,3.22-5,0-5C267.04,366.42,267.04,371.42,270.26,371.42L270.26,371.42z"/>
		</g>
	</g>
	<g>
		<g>
			<path class="st0" d="M210.63,620.04c0.38,0,0.75,0,1.13,0c0.34,0.01,0.67-0.06,0.96-0.22c0.31-0.1,0.58-0.27,0.8-0.52
				c0.24-0.23,0.42-0.49,0.52-0.8c0.16-0.3,0.23-0.62,0.22-0.96c-0.03-0.22-0.06-0.44-0.09-0.66c-0.12-0.42-0.33-0.79-0.64-1.1
				c-0.17-0.13-0.34-0.26-0.51-0.39c-0.39-0.23-0.81-0.34-1.26-0.34c-0.38,0-0.75,0-1.13,0c-0.34-0.01-0.67,0.06-0.96,0.22
				c-0.31,0.1-0.58,0.27-0.8,0.52c-0.24,0.23-0.42,0.49-0.52,0.8c-0.16,0.3-0.23,0.62-0.22,0.96c0.03,0.22,0.06,0.44,0.09,0.66
				c0.12,0.42,0.33,0.79,0.64,1.1c0.17,0.13,0.34,0.26,0.51,0.39C209.76,619.93,210.18,620.04,210.63,620.04L210.63,620.04z"/>
		</g>
	</g>
	<g>
		<g>
			<path class="st0" d="M516.7,231.69c-0.46,6.37-0.92,12.74-1.37,19.11c-0.1,1.35,1.22,2.5,2.5,2.5c1.43,0,2.4-1.15,2.5-2.5
				c0.46-6.37,0.92-12.74,1.37-19.11c0.1-1.35-1.22-2.5-2.5-2.5C517.77,229.19,516.8,230.34,516.7,231.69L516.7,231.69z"/>
		</g>
	</g>
	<g>
		<g>
			<path class="st0" d="M517.76,263.42c3.22,0,3.22-5,0-5C514.54,258.42,514.54,263.42,517.76,263.42L517.76,263.42z"/>
		</g>
	</g>
	<g>
		<g>
			<path class="st0" d="M749.04,351.58c4.26-3.63,7.42-8.36,9.34-13.6c0.45-1.23-0.5-2.79-1.75-3.08c-1.41-0.32-2.59,0.43-3.08,1.75
				c-0.11,0.29-0.21,0.58-0.33,0.86c-0.09,0.23-0.16,0.39-0.02,0.07c-0.05,0.13-0.11,0.25-0.16,0.38c-0.25,0.56-0.52,1.12-0.8,1.66
				c-0.59,1.12-1.24,2.21-1.97,3.25c-0.18,0.25-0.36,0.5-0.54,0.75c-0.08,0.11-0.16,0.22-0.25,0.33c0.21-0.28,0.09-0.12-0.05,0.06
				c-0.39,0.48-0.79,0.95-1.2,1.4c-0.85,0.94-1.77,1.81-2.73,2.64c-1,0.85-0.94,2.67,0,3.54
				C746.57,352.56,747.98,352.49,749.04,351.58L749.04,351.58z"/>
		</g>
	</g>
	<g>
		<g>
			<path class="st0" d="M738.26,363.54c3.22,0,3.22-5,0-5C735.04,358.54,735.04,363.54,738.26,363.54L738.26,363.54z"/>
		</g>
	</g>
	<g>
		<g>
			<path class="st0" d="M818.13,589.67c3.22,0,3.22-5,0-5C814.92,584.67,814.91,589.67,818.13,589.67L818.13,589.67z"/>
		</g>
	</g>
	<g>
		<g>
			<path class="st0" d="M719.13,827.04c3.22,0,3.22-5,0-5C715.92,822.04,715.91,827.04,719.13,827.04L719.13,827.04z"/>
		</g>
	</g>
	<g>
		<g>
			<path class="st0" d="M520.15,295.24c8.97,30.02,14.62,61.01,16.72,92.27c0.59,8.79,0.9,17.59,0.94,26.4c0.02,3.22,5.02,3.22,5,0
				c-0.15-31.61-3.83-63.21-10.95-94c-2.02-8.74-4.32-17.41-6.89-26C524.05,290.83,519.23,292.14,520.15,295.24L520.15,295.24z"/>
		</g>
	</g>
</g>
</svg>
